<svg xmlns="http://www.w3.org/2000/svg" xmlns:xlink="http://www.w3.org/1999/xlink" width="710" height="206" viewBox="0 0 710 206">
  <defs>
    <clipPath id="clip-path">
      <rect id="Rectangle_2" data-name="Rectangle 2" width="710" height="206" transform="translate(0.4 -0.138)" fill="none"/>
    </clipPath>
  </defs>
  <g id="Vector_Smart_Object" data-name="Vector Smart Object" transform="translate(-0.4 0.138)">
    <g id="Group_4" data-name="Group 4" transform="translate(0 0)">
      <g id="Group_3" data-name="Group 3" clip-path="url(#clip-path)">
        <path id="Path_1" data-name="Path 1" d="M145.752,155.6c-9.069-5.679-19.85-8.034-30.409-9.181-1.592-.173-7.787-.1-8.616-.719-1.444-1.089.643-2.569,1.533-3.385,11.109-10.2,25.4-18.838,36.781-28.96a2.2,2.2,0,0,0,1.082-2.4l-2-.424-84.366-.07c-1.04-.224-2.284-.795-2.5-1.976-.451-6.14.563-13.014,0-19.06C56.7,83.477,46.884,83.194,43.069,86.1,33.4,97.631,23.792,108.639,10.9,116.684c-2.663,1.662-9.08,4.447-10.9,6.179l1.054,3.356c4.151.654,10.591-.791,14.464.1A2.134,2.134,0,0,1,17.2,128l.056,49.962c-.7,4.5-8.634,5.594-8.558,8.255,1.45,3.233,7.735,3.022,8.5,6.8.621,7.25-.531,15.175.074,22.344.217,2.581.489,3.185,2.744,4.353,4.071,2.106,15.629,7.081,19.845,8.168,2.5.643,3.266.43,5.565-.446,6.07-2.312,16.943-7.973,22.656-11.336.567-.334,1.746-.842,1.992-1.416.482-.84-.206-1.5-.908-1.922-2.883-1.72-11.335-2.457-11.9-6.028-.309-1.953-.3-12.259.155-14,.942-3.645,10.954-4.5,7.5-8.23-1.641-1.774-7.794-2.69-7.675-6.893l0-10.6c16.078,1.093,39.552-12.133,53.783-1.7,6.1,4.469,11.137,11.5,2.764,16.9-1.511.975-6.962,2.659-4.328,5.314,1.32,1.329,5.018,2.063,7,3.73,4.048,3.4,2.443,7.027.125,10.939-6.426,10.843-21.042,10.872-32.247,10.737-3.562-.043-7.2-1.584-9.88,2.041-5.68,7.677,8.5,8.782,12.886,9.149,19.637,1.636,48.143.6,63.847-12.711,21.406-18.148,17.375-41.529-5.435-55.815M96.481,137.632c-9.091,7.5-14.442,11.549-25.944,15.518-2.7.932-8.979,2.175-13.3,3.419l-.005-27.906a2.321,2.321,0,0,1,2.428-2.428c19.521,1.033,26.63-1.353,45.991-.011,1.484.1,2.595.19,1.959,1.989-.354,1-9.508,8.08-11.129,9.418m236.231,19.257c4.691-3.475,9.167-4.63,14.13-7.162,2.674-1.364,6.495-3.468,4.5-7.016-2.226-3.965-5.489-1.338-8.542-1.134-1.571.1-2.764-.388-4.109-.4-15.107-.191-31.857,1.062-46.695.011a26.055,26.055,0,0,1-5.993-1.1c-3.422-1.219-3.913-3.537-8.481-2.9a8.511,8.511,0,0,0-4.588,2.505c-3.071,2.877-5.756,6.7-8.943,9.734-12.211,11.631-29.867,23.525-16.782,42.923,15.026,22.277,56.221,26.7,80.63,24.315,3.156-.307,5.733-.157,4.369-3.99A135.7,135.7,0,0,0,324,195.477c-2.391-3.645-7.533-2.126-11.46-2.361-4.254-.253-8.813-.522-13.022-1.169-1.136-.175-4.034-.453-4.557-1.443-.4-.829.175-1.669.771-2.24,12.68-9.577,24.3-21.983,36.981-31.375m-48.369,27.084c-3.257,2.507-3.961,1.9-7.217-.262-7.089-4.7-10.792-11.887-8.578-20.4.666-2.561,1.863-5.708,4.871-5.963,11.534.562,24.384-1.086,35.768-.112,5.79.5,1.934,3.1-.569,5.437-7.164,6.7-16.6,15.39-24.275,21.3m-29.975-39.146c-1.063-4.131-5.42-2.337-7.943-2.151-3.039.226-5.77.184-8.529-1.169-2.976-1.458-3.461-3.325-7.524-2.935-4.2.4-6.865,5.182-9.891,7.664-1.5,1.23-9.113,5.614-10.714,5.693-1.2.058-2.349-1.77-3.36-2.457a92.971,92.971,0,0,0-15.441-7.343c-2.047-.676-2.307-.755-4.355.112-5.07,2.151-12.343,8.529-17.844,8.291-2.788-.121-5.633-2.442-8.233-.753a3.3,3.3,0,0,0-1.509,4.133c1.085,3.474,12.677,5.571,15.974,7.178,1.027.5,2.019,1.1,2.132,2.35l-.054,35.767c-.7,3.11-6.475,3.775-8.026,5.6-.959,1.131-.233,2.193.621,3.082,2.412,2.509,10.768,8.784,13.874,10.78,2.811,1.808,2.873,1.609,6.03.515,5.787-2.005,11.319-5.074,17.068-7.213l1.224-1.389.643-44.193a6.22,6.22,0,0,1,.966-3.143c4.407-6.775,20.567-3.791,27.637-4.483,2.575-.251,4.727-2.549,7.013-3.819,3.815-2.119,11.7-4.465,10.241-10.121M708.975,122.2c-4.819-3.282-10.649-5.677-15.706-9.321C682.7,105.259,674.7,94.8,665.875,85.358c-3.133-1.707-12.527-1.431-13.061,2.948l-.02,68.39c-1.623-.28-3.281-.428-4.584-.737-6.327-1.506-11.012-3.6-16.972-5.811-.878-.325-2.174-.623-3.517-.99-.46-.125-.924-.262-1.379-.408l-1.031-.2s-11.1-3.322-27.455-2.205a135.824,135.824,0,0,1,.052-15.69,2.867,2.867,0,0,1,1.137-2.224c2.589-1.866,17.326.518,18.332-.979l-.744-2.363c-5.821-4.14-11-9.628-17.36-12.9l-57.586-.047c-3.6.361-1.354,2.146.2,3.578,2.493,2.292,12.086,10.222,14.683,11.465,3.719,1.777,13.533-.4,15.724,1.08,2.172,1.47-3.3,4.281-4.275,5.367a7.727,7.727,0,0,0-1.5,4.778v3.132a32.159,32.159,0,0,1,0,4.9v8.04c-18.07,10.132-30,29.874-14.645,49.648,10.627,13.69,27.153,18.61,43.878,19.992a81.033,81.033,0,0,0,10.842.392,7.548,7.548,0,0,0,3.071-.851c.744-.744.69-8.771.049-9.774s-5.5-1.7-7.2-2.514c-4.322-2.074-12.222-11.692-11.732-16.5.478-4.687,7.072-5.2,9.239-7.2,2.939-2.722-2.654-4.462-4.209-5.466-8.1-5.229-2.99-12,2.766-16.528,12.745-10.029,34.59.157,49.085,1.27a30.936,30.936,0,0,0,5.122.042l0,9.451c-.758,6.246-5.944,5.249-8.939,9.4-.262,2.737,6.935,3.4,8.381,6.557a8.244,8.244,0,0,1,.612,2.749c.188,2.209.265,11-.48,12.622-1.127,2.451-10.124,3.6-12.428,5.5-.552,1.062.072,1.886,1.06,2.321l25.489,12.606a9.517,9.517,0,0,0,3.158-.157c3.487-.766,16.234-6.369,19.8-8.215,1.351-.7,2.688-1.31,2.958-3.02,1.085-6.884-1.215-17.019.188-23.724.95-4.541,10.757-4.588,7.565-8.468-1.84-2.236-7.013-2-7.7-7.05l.056-48.823a2.7,2.7,0,0,1,2.362-2.494c4.211-.654,10.454.76,14.459-.107,2.618-.567,1.267-2.861-.352-3.963m-275.917,75.89c-.522-2.328.031-6.638-.065-9.277-.312-8.6-1.183-19.55-.4-28.021.41-4.456,2.448-2.9,5.512-3.824,1.439-.434,16.51-8.011,17.624-8.9,2.2-1.745,3.418-4.1,1.027-6.38-2.833-2.7-6.3.155-9.439.208-1.423.023-3.311-.677-4.8-.723-14.076-.434-29.078.928-42.981.031-5.054-.327-5.494-1.3-9.494-3.206-6.552-3.119-8.594,1.723-12.706,5.251-10.579,9.078-33.758,20.1-38.794,32.179-9.078,21.773,16.606,38.3,34.307,43.286,2.17.611,4.963,1.779,6.975.623l19.406-14.953c3.925-2.012,1.518,3.994,4.113,5.867,1.742,1.259,16.58,7.59,18.8,8.1a4.076,4.076,0,0,0,2.833-.168c4.469-3.67,9.887-7.039,14.152-10.87a7.549,7.549,0,0,0,2.313-2.791c.005-2.3-7.722-3.475-8.383-6.432m-31.366-31.592-.262,23.65c-.43,1.658-4.714,4.937-6.3,5.657-8.259,3.766-26.686-7.5-30.026-15.3-2.535-5.917.533-13.553,4.225-18.361,1.652-2.151,3.53-4.5,6.415-4.792,9.479.437,20.065-.916,29.419-.11,8.5.732-3.082,5.917-3.476,9.254m138.329-10.962c3.243-1.673,8.181-4.2,11.319-5.8,2.676-1.364,6.495-3.468,4.5-7.016a3.563,3.563,0,0,0-3.647-2.155c-1.578-.164-3.326.569-5.036,1.019-1.5.065-2.665-.387-3.967-.4-5.429-.069-11.073.051-16.761.181H502.485c-.608,0-1.215.029-1.822.047a64.562,64.562,0,0,0-42.15,17.263c-1.013.943-2.008,1.907-2.963,2.919a32.366,32.366,0,0,0-5.922,8.1c-3.171,5.934-3.813,12.612.8,20.585,5.214,9.906,16.492,17.906,25.781,21.439,14.955,5.684,43.526,7.83,59.249,5.285a9.582,9.582,0,0,0,2.752-.795c.816-.78.2-2.041-.108-2.9a141.09,141.09,0,0,0-6.206-13.217c-.6-1.2-2.06-4.64-2.939-5.28-3.7-2.682-8.773-1.5-11.915-1.691-4.254-.253-8.815-.522-13.022-1.169-.35-.054-.87-.121-1.432-.211a48.109,48.109,0,0,1-20.793-7.913c-.058-.038-.108-.074-.168-.112a23.665,23.665,0,0,1-4.638-4,14.629,14.629,0,0,1-1.044-1.219l.029-.018a17.547,17.547,0,0,1-2.889-5.659c-.016-.061-.031-.125-.047-.188a20.25,20.25,0,0,1-.421-4.01,11.164,11.164,0,0,1,9.288-11.154c3.456.036,6.993-.065,10.55-.193l21.293-.018-.06-.007c-.069-.005,10.178-.009,19.323-.013a15.327,15.327,0,0,0,7.013-1.7" transform="translate(0 -22.907)" fill="#db2422"/>
        <path id="Path_2" data-name="Path 2" d="M270.136,25.105l-.264,35.1h-.525l-.657-35.1L267.769,0H256.733l-1.053,25.106-.525,35.1h-.525l-.525-35.1L253.317,0H223.58v10.91h3.548V94.115h11.694V10.909h3.187l3.949,83.205H258.31l1.183-27.078.919-33.124h.527l.787,33.124,1.314,27.078h12.22L279.727,0h-8.672ZM281.3,94.115h17.342V83.2h-5.911V48.634h4.992V37.724h-4.992V10.909h5.911V0H281.3Zm33.5-72.953,1.183,23.529h-.525l-1.708-23.135L312.178,0H300.747V94.115h9.2V72.82L308.5,46.136h.525l2.365,25.633,1.972,22.346H324V0h-9.2Zm43.006-2.63-.525,27.21h-.525l-.527-27.21L355.446,0H325.972v10.91h3.548V94.115h11.694V10.909h3.178l5.4,56.917V94.115h11.694V67.826L368.059,0H358.73ZM399.943,3.021A2.842,2.842,0,0,0,397.183,0H379.051a2.842,2.842,0,0,0-2.759,3.022v88.07a2.843,2.843,0,0,0,2.759,3.024h18.131a2.844,2.844,0,0,0,2.761-3.024Zm-10.775,81.76c0,.789-.394,1.053-1.051,1.053s-1.051-.264-1.051-1.053V9.2c0-.789.394-.921,1.051-.921s1.051.264,1.051,1.051Zm27.856-63.62L418.2,44.691h-.525l-1.708-23.135L414.395,0H402.964V94.115h9.2V72.82l-1.446-26.684h.525l2.365,25.633,1.972,22.346h10.644V0h-9.2Zm12.348,72.953h17.344V83.2H440.8V48.634h4.992V37.724H440.8V10.909h5.913V0H429.372ZM477.065,0H456.041V94.115h11.037V69.928h9.986a2.843,2.843,0,0,0,2.759-3.024V3.021A2.842,2.842,0,0,0,477.065,0m-7.883,60.466c0,.526-.264.919-.789.919h-1.314V8.543h1.314c.525,0,.789.394.789.919Zm13.531,33.65h11.431V0H482.713ZM508.859,0H497.3V94.115h16.291V83.469h-4.729ZM539.34,3.021A2.842,2.842,0,0,0,536.581,0H518.448a2.842,2.842,0,0,0-2.759,3.022v88.07a2.843,2.843,0,0,0,2.759,3.024h18.133a2.843,2.843,0,0,0,2.759-3.024Zm-10.774,81.76c0,.789-.4,1.053-1.051,1.053s-1.051-.264-1.051-1.053V9.2c0-.789.394-.921,1.051-.921s1.051.264,1.051,1.051Zm12.612-73.872h3.548V94.115H556.42V10.909h3.68V0H541.178ZM585.325,37.2V3.021A2.842,2.842,0,0,0,582.566,0h-18a2.842,2.842,0,0,0-2.759,3.022V45.742a3.1,3.1,0,0,0,1.576,3.024l9.855,4.994a2.13,2.13,0,0,1,1.314,2.234V85.307c0,.789-.264,1.053-.921,1.053-.787,0-1.051-.264-1.051-1.053V57.178l-10.774-.262V91.091a2.843,2.843,0,0,0,2.759,3.024h18a2.843,2.843,0,0,0,2.759-3.024V48.5a4.08,4.08,0,0,0-2.365-3.943l-9.066-4.469c-.921-.394-1.314-.919-1.314-2.234V8.673c0-.656.264-.919.919-.919.789,0,1.053.264,1.053.919V37.2Z" transform="translate(-60.751 0.001)" fill="#db2422"/>
      </g>
    </g>
  </g>
</svg>
